<?xml version="1.0" encoding="utf-8"?>
<!-- Generator: Adobe Illustrator 23.0.3, SVG Export Plug-In . SVG Version: 6.00 Build 0)  -->
<svg version="1.1" id="Ebene_1" xmlns="http://www.w3.org/2000/svg" xmlns:xlink="http://www.w3.org/1999/xlink" x="0px" y="0px"
	 viewBox="0 0 598.6 118.8" style="enable-background:new 0 0 598.6 118.8;" xml:space="preserve">
<style type="text/css">
	.st0{fill:#333333;}
	.st1{fill:#3C84B6;}
	.st2{fill:#2E6CA4;}
	.st3{fill:#4EA5D0;}
	.st4{fill:#5DBFE3;}
</style>
<g>
	<polygon class="st0" points="245.5,94.7 245.5,0.1 218.1,0.1 218.1,118.8 303,118.8 303,94.7 	"/>
	<path class="st0" d="M172.7,77.2c4.7-2.2,8.6-5.2,11.9-9.1c3.3-3.8,5.9-8.1,7.7-12.9c1.9-4.8,2.7-9.8,2.7-15.1c0-4.9-1-9.7-3-14.5
		s-4.6-9.1-8-12.9c-3.4-3.8-7.4-6.9-12.2-9.2c-4.7-2.3-9.9-3.5-15.6-3.5h-43.9v24h42.2c1.5,0,3.2,0.3,4.7,0.9c1.5,0.7,3,1.6,4.2,3
		c1.2,1.3,2.2,3.1,3,5c0.8,2,1.1,4.4,1.1,7.2c0,5.4-1.2,9.4-3.5,12.2c-2.3,2.7-5.1,4.2-8.3,4.2h-6.3l0,0l0,0h-35l46.8,62.2h34.9
		l-29.5-39.3C168.5,78.8,170.6,78.1,172.7,77.2z"/>
	<path class="st0" d="M59.6,94.7c-5,0-9.5-0.9-13.3-2.6c-3.9-1.7-7.1-4.3-9.7-7.4c-2.6-3.2-4.6-6.9-6-11.1c-1.4-4.3-2.1-9-2.1-14.1
		c0-5.2,0.7-10.1,2.1-14.3c1.4-4.3,3.4-8,6.1-11.1c2.6-3.2,6-5.5,9.8-7.2c3.9-1.6,8.3-2.5,13.2-2.5h25.8v-24H59.6
		c-9.8,0-18.4,1.5-25.8,4.7C26.5,8,20.2,12.1,15.3,17.5S6.6,29.1,4.2,36.3c-2.5,7.2-3.7,14.9-3.7,23c0,9.1,1.4,17.2,4.2,24.5
		s6.8,13.6,11.9,18.7c5.1,5.1,11.5,9.2,18.7,12c7.3,2.8,15.4,4.3,24.4,4.3h52.2l-18.1-24H59.6z"/>
</g>
<g>
	<path class="st1" d="M521.5,39.2c-2.2-7.9-16.3,0-13.2,13.9c2.7,12.4,19.7,14.3,17.7,6.4C525.1,56.3,522.3,42.4,521.5,39.2z"/>
	<path class="st1" d="M516.2,68.9c-4.7-0.7-9.5-1.5-10.7,1.5c-5.8,14.3,6,35.5,10.9,24.3c1.3-3.1,6.7-17.9,7.9-21.1
		C525.6,69.9,520.9,69.5,516.2,68.9z"/>
	<path class="st1" d="M500.7,99c-2.5-2.8-9.3,1.4-17.4,5.7c-6.1,3.3-11.9,4.9-13.3,7.4c-0.7,1.1,2.6,2.1,6.2,1.4
		c3.8-0.8,21.9-4.9,25.7-5.8C506.2,106.8,503.2,101.9,500.7,99z"/>
	<path class="st2" d="M483.8,65.5c-4.4,0.7-8.7,1.2-9,4.4c-1.4,14.8,14.3,30.7,15.7,19.1c0.4-3.2,1.3-18.3,1.5-21.4
		C492.3,63.9,488,64.8,483.8,65.5z"/>
	<path class="st2" d="M473.8,92.6c-3-3.3-7-5.5-9.8-4c-13.1,6.9-15.4,28-4.9,22.8c2.8-1.4,16-9,18.7-10.6
		C480.9,99.1,476.6,95.7,473.8,92.6z"/>
	<path class="st2" d="M491.5,54.5c-1.9-2.3-9.2-12.1-11-14.3c-4.6-5.5-12.9,6-5.2,15.8C481.9,64.7,496,60.1,491.5,54.5z"/>
	<path class="st3" d="M541.7,80.1c-4.2-1.9-8.3-3.9-10.3-1.4c-9.1,11.7-3.7,34.2,3.7,25.2c2.1-2.5,10.8-14.8,12.8-17.4
		C550,83.6,545.8,81.9,541.7,80.1z"/>
	<path class="st3" d="M509.4,111.4c-6.6,2.3-9.3,2.8-10.8,3.6c-2,1,2.5,2.2,6.2,1.6c3.9-0.5,12.1-1.9,16.1-2.6
		c4.4-0.8,0.9-4.4-1.1-7.5C517.7,103.3,515.4,109.2,509.4,111.4z"/>
	<path class="st3" d="M554.4,76.5c1.4-3.5,8.2-17.8,9.5-21.3c3.4-8.5-13.1-9.8-19.6,4.8C538.6,73,550.9,84.9,554.4,76.5z"/>
	<path class="st3" d="M429.4,66.8c23.5,11.7,36.1,1.5,32.6-4.2c-1.4-2.3-13.9-10.7-29.2-12c-17.3-1.4-38.3,6.6-35.6,8
		C399.4,59.8,411.4,57.7,429.4,66.8z"/>
	<path class="st4" d="M578.3,71.7c-10.8,6.6-7.2,23.2-0.4,18.8c2.8-1.9,15.1-8.9,17.8-10.7C602.4,75.2,590.5,64.3,578.3,71.7z"/>
	<path class="st4" d="M458.9,48.9c6.1-3.1,9.1-17.2,16.5-18.7c8.4-1.7,11.3,5.2,12.8,7.8c1.4,2.4,6.1-6.1,8.6-9.1
		c1.6-2-5.8-1-9.5-5.1c-3.7-4.2-2.4-8.9-4.6-6.9C464.8,33,446.5,42.3,444,44.2C441.5,46.2,453.3,51.7,458.9,48.9z"/>
	<path class="st4" d="M496.6,17.2c3.8,3.7,2,9.6,4.3,7.8c3.2-2.6,17.1-15.4,8.4-22.4c-9.4-7.7-19.6,6-21.9,9.9
		C486.5,14.1,492.2,12.8,496.6,17.2z"/>
	<path class="st4" d="M565.5,91.3c-8-1.5-13.8,7.5-16.7,12c-1.1,1.5-0.9,2.8-0.1,2.5c4.9-2.2,19-8.3,21.1-11.4
		C570.9,92.9,567.6,91.7,565.5,91.3z"/>
	<path class="st2" d="M449,79.1c-25.9,0.3-39.5-19-67.2-12c-8.1,2.1-14.2,8.2-16.2,15.4h-17.4c-1.5,0-2.8,1.3-2.8,2.8
		s1.3,2.8,2.8,2.8h16.7l0,0h11.4c4.7,0,8.6,3.8,8.6,8.6c0,4.7-4.4,8.9-9.1,8.9c0,0-0.2,0-0.1,0h-27.4c-1.5,0-2.8,1.3-2.8,2.8
		c0,1.5,1.3,2.8,2.8,2.8h41c3,0.8,6.1,1.4,9.6,1.9c21,2.7,44.5,4.9,43.3,0.4c-3.2-12.5,3-19.7,8.4-24.9
		C454.5,84.8,458.9,79,449,79.1z"/>
	<path class="st3" d="M375.8,99.7c1.5,0,2.8-1.3,2.8-2.8s-1.3-2.8-2.8-2.8h-29.4c-1.5,0-2.8,1.3-2.8,2.8s1.3,2.8,2.8,2.8H375.8z"/>
</g>
</svg>
